# xmcd
#
# Track frame offsets: 
#        150
#        16190
#        34041
#        58303
#        74522
#        87826
#        99967
#        116147
#        130052
#        143541
#        158627
#        171696
#        189847
#        202973
#        219567
#        236852
#        250675
#        266151
#
# Disc length: 3606 seconds
#
# Revision: 0
# Processed by: cddbd v1.5.2PL0 Copyright (c) Steve Scherf et al.
# Submitted via: ExactAudioCopyFreeDBPlugin 1.0
#
DISCID=000e1412
DTITLE=Dennis Cash - Songs of Home
DYEAR=1900
DGENRE=Bluegrass
TTITLE0=My Old Cottage Home
TTITLE1=Little Log Cabin by the Sea
TTITLE2=The Storms Are on the Ocean
TTITLE3=Keep on the Sunny Side
TTITLE4=My Home Among the Hills
TTITLE5=The Foggy Mountain Top
TTITLE6=Little Darling Pal of Mine
TTITLE7=There'll Be Joy, Joy, Joy
TTITLE8=My Clinch Mountain Home
TTITLE9=Little Poplar Log House on the Hill
TTITLE10=I'm On My Way to Canaan's Land
TTITLE11=The Church in the Wildwood
TTITLE12=Heaven's Radio
TTITLE13=Give Me the Roses While I Live
TTITLE14=When the Roses Bloom in Dixieland
TTITLE15=There's No Hiding Place Down Here
TTITLE16=Longing for Old Virginia
TTITLE17=Wildwood Flower
EXTD=
EXTT0=
EXTT1=
EXTT2=
EXTT3=
EXTT4=
EXTT5=
EXTT6=
EXTT7=
EXTT8=
EXTT9=
EXTT10=
EXTT11=
EXTT12=
EXTT13=
EXTT14=
EXTT15=
EXTT16=
EXTT17=
PLAYORDER=
